Coordinates
version=1
nRows=7
nColumns=63
inDegrees=yes

Units are S.I. units (second, meters, Newtons, ...)
If the header above contains a line with 'inDegrees', this indicates whether rotational values are in degrees (yes) or radians (no).

endheader
time	pelvis_tilt	pelvis_list	pelvis_rotation	pelvis_tx	pelvis_ty	pelvis_tz	hip_flexion_r	hip_adduction_r	hip_rotation_r	knee_angle_r	knee_angle_r_beta	ankle_angle_r	subtalar_angle_r	mtp_angle_r	hip_flexion_l	hip_adduction_l	hip_rotation_l	knee_angle_l	knee_angle_l_beta	ankle_angle_l	subtalar_angle_l	mtp_angle_l	L5_S1_Flex_Ext	L5_S1_Lat_Bending	L5_S1_axial_rotation	L4_L5_Flex_Ext	L4_L5_Lat_Bending	L4_L5_axial_rotation	L3_L4_Flex_Ext	L3_L4_Lat_Bending	L3_L4_axial_rotation	L2_L3_Flex_Ext	L2_L3_Lat_Bending	L2_L3_axial_rotation	L1_L2_Flex_Ext	L1_L2_Lat_Bending	L1_L2_axial_rotation	L1_T12_Flex_Ext	L1_T12_Lat_Bending	L1_T12_axial_rotation	Abs_r3	Abs_r2	Abs_r1	Abs_t1	Abs_t2	neck_flexion	neck_bending	neck_rotation	arm_flex_r	arm_add_r	arm_rot_r	elbow_flex_r	pro_sup_r	wrist_flex_r	wrist_dev_r	arm_flex_l	arm_add_l	arm_rot_l	elbow_flex_l	pro_sup_l	wrist_flex_l	wrist_dev_l
      3.77500000	     -0.28224730	     -5.19883050	    101.93890953	      0.26099525	      0.46618153	      0.87353067	     -2.52544928	      0.43114142	      1.67569689	      0.68661128	      0.01198363	     28.03586550	     -7.53498551	      0.00000000	      2.13118871	      1.46941987	     21.94626193	      1.90670376	      0.03327826	     28.99611923	    -12.98812466	      0.00000000	     -0.07562652	     -0.30043198	     -1.40910920	     -0.14044601	     -0.39957453	     -1.49717852	     -0.12424681	     -0.73047031	     -1.49717852	     -0.08643355	     -0.73047031	     -1.23297055	     -0.07022679	     -0.61264089	     -1.14490122	     -0.04321299	     -0.46536913	     -1.05683190	     -0.54019269	     -3.39854662	     -7.83704262	      0.00000000	      0.00000000	     13.77023482	      0.97812135	     -1.54909624	     11.83781046	    -12.19139913	    139.60211421	     11.78384577	      5.43238966	      5.00458513	    -10.85635686	      8.33735498	    -12.90901334	    138.27432738	      7.23752409	      2.66446291	     -2.22147704	    -12.02533320
      3.80000000	     -0.09773153	     -5.17117971	    102.09323848	      0.26152689	      0.46641873	      0.87445498	     -2.40198661	      0.67429509	      1.54840462	      0.66879625	      0.01167270	     28.12286225	     -7.58116754	      0.00000000	      2.22416581	      1.25942761	     21.88963173	      1.83288361	      0.03198985	     29.08328521	    -13.01259114	      0.00000000	     -0.09930517	     -0.32770880	     -1.33810062	     -0.18441964	     -0.43585271	     -1.42173191	     -0.16314847	     -0.79679118	     -1.42173191	     -0.11349588	     -0.79679118	     -1.17083805	     -0.09221478	     -0.66826379	     -1.08720676	     -0.05674298	     -0.50762093	     -1.00357547	     -0.70932692	     -3.70710751	     -7.44211424	      0.00000000	      0.00000000	     13.05983168	      0.52114441	     -0.78671913	     11.64659740	    -12.01603277	    139.27079396	     11.86888282	      5.22357154	      5.05968849	    -10.96753182	      8.75218021	    -13.07104577	    138.43296362	      7.40037417	      2.75630218	     -2.07423482	    -11.70309736
      3.82500000	      0.15032216	     -5.12664037	    102.10187153	      0.26137289	      0.46644258	      0.87500797	     -2.32111527	      0.91033889	      1.64327080	      0.61151111	      0.01067288	     28.35114390	     -7.42848347	      0.00000000	      2.18848520	      1.03684086	     21.63324712	      1.66390691	      0.02904065	     29.19773494	    -13.07901876	      0.00000000	     -0.08508407	     -0.32044404	     -1.24861265	     -0.15800963	     -0.42619057	     -1.32665094	     -0.13978462	     -0.77912763	     -1.32665094	     -0.09724259	     -0.77912763	     -1.09253607	     -0.07900907	     -0.65344948	     -1.01449778	     -0.04861704	     -0.49636781	     -0.93645949	     -0.60774701	     -3.62492704	     -6.94440897	      0.00000000	      0.00000000	     12.26767043	     -0.59853111	      0.86895486	     11.22479968	    -12.17867438	    137.91119747	     12.03027897	      4.30630897	      5.22630394	    -11.09475894	      9.18003065	    -13.09478540	    138.71757520	      8.00796274	      2.89159877	     -1.92695449	    -11.08038319
      3.85000000	      0.39790794	     -5.07693001	    102.20522222	      0.26183034	      0.46648325	      0.87598383	     -2.22032935	      1.20075068	      1.62445719	      0.58827888	      0.01026740	     28.42918373	     -7.44579144	      0.00000000	      2.21311079	      0.77864150	     21.57468114	      1.65595988	      0.02890195	     29.20962323	    -13.11004598	      0.00000000	     -0.08363388	     -0.34544110	     -1.21269719	     -0.15531649	     -0.45943666	     -1.28849076	     -0.13740211	     -0.83990548	     -1.28849076	     -0.09558517	     -0.83990548	     -1.06111004	     -0.07766243	     -0.70442348	     -0.98531647	     -0.04778840	     -0.53508826	     -0.90952289	     -0.59738847	     -3.90769877	     -6.74465795	      0.00000000	      0.00000000	     12.39328136	     -0.91874863	      1.02535121	     11.21283276	    -11.90640649	    137.74054279	     12.14316066	      4.23749265	      5.26538511	    -11.09500370	      9.23248139	    -13.33195738	    138.70173221	      7.89876104	      2.87102631	     -2.01853946	    -11.09169065
      3.87500000	      0.75580194	     -5.20165359	    101.70920776	      0.26266762	      0.46624095	      0.87749851	     -1.80326771	      1.50271468	      2.26229537	      0.65795247	      0.01148344	     28.35261910	     -7.62040921	      0.00000000	      2.40107825	      0.44541214	     20.62730142	      1.68268251	      0.02936835	     29.34905550	    -12.56790338	      0.00000000	     -0.08725926	     -0.34263726	     -1.05582042	     -0.16204916	     -0.45570755	     -1.12180920	     -0.14335823	     -0.83308823	     -1.12180920	     -0.09972860	     -0.83308823	     -0.92384287	     -0.08102895	     -0.69870589	     -0.85785409	     -0.04985994	     -0.53074511	     -0.79186532	     -0.62328414	     -3.87598117	     -5.87215644	      0.00000000	      0.00000000	     14.17289751	     -4.03161178	     -0.06871705	     11.15172081	    -12.40266936	    130.24585624	     13.06762425	      8.28552737	      4.37584643	    -10.23275738	      9.63001212	    -13.59222058	    137.46861537	      8.64426513	      3.45479703	     -3.63194022	    -12.03253677
      3.90000000	      0.95995275	     -5.47285357	    101.71306772	      0.26348159	      0.46607122	      0.87864058	     -1.36357840	      1.68670233	      3.06757513	      0.68593298	      0.01197179	     28.05290074	     -8.82082143	      0.00000000	      2.73346637	      0.28226939	     20.53998347	      1.75673354	      0.03066078	     29.10962214	    -12.54154137	      0.00000000	     -0.07987307	     -0.38692495	     -1.02161967	     -0.14833228	     -0.51461018	     -1.08547090	     -0.13122347	     -0.94076931	     -1.08547090	     -0.09128693	     -0.94076931	     -0.89391721	     -0.07417013	     -0.78901735	     -0.83006598	     -0.04563947	     -0.59934674	     -0.76621475	     -0.57052536	     -4.37697237	     -5.68194212	      0.00000000	      0.00000000	     16.35943586	     -5.53669487	     -0.73224038	     11.49850466	    -10.78079891	    141.35110213	     10.26838386	      5.77539656	      4.97559349	    -12.16813270	      9.84375866	    -14.14874386	    136.50638056	      9.03106426	      3.74374831	     -4.08525760	    -12.82474953
      3.92500000	      1.12569730	     -5.81879061	    101.93657199	      0.26395322	      0.46582406	      0.87908030	     -0.91792998	      1.81881076	      2.96265346	      0.73028747	      0.01274592	     28.10471475	     -8.96944004	      0.00000000	      3.10089756	      0.15888544	     20.54078782	      1.78553012	      0.03116338	     28.97047369	    -12.12228305	      0.00000000	     -0.06434425	     -0.44130566	     -1.03220827	     -0.11949371	     -0.58693653	     -1.09672129	     -0.10571117	     -1.07299058	     -1.09672129	     -0.07353904	     -1.07299058	     -0.90318223	     -0.05975007	     -0.89991050	     -0.83866922	     -0.03676630	     -0.68358247	     -0.77415620	     -0.45960454	     -4.99213787	     -5.74083273	      0.00000000	      0.00000000	     18.60026550	     -5.98055674	     -0.53340437	     11.26095163	     -8.97581962	    158.48951962	      5.81588258	      3.58038816	      4.66861258	    -14.26838210	      9.86481901	    -14.75367789	    135.27857544	      9.36521294	      4.04383367	     -4.40148958	    -13.51158737
